<?xml version="1.0" encoding="UTF-8" standalone="no"?>
<!-- Created with Inkscape (http://www.inkscape.org/) -->

<svg
   xmlns:dc="http://purl.org/dc/elements/1.1/"
   xmlns:cc="http://creativecommons.org/ns#"
   xmlns:rdf="http://www.w3.org/1999/02/22-rdf-syntax-ns#"
   xmlns:svg="http://www.w3.org/2000/svg"
   xmlns="http://www.w3.org/2000/svg"
   xmlns:sodipodi="http://sodipodi.sourceforge.net/DTD/sodipodi-0.dtd"
   xmlns:inkscape="http://www.inkscape.org/namespaces/inkscape"
   width="2cm"
   height="2cm"
   viewBox="0 0 70.866142 70.866143"
   id="svg2"
   version="1.1"
   inkscape:version="0.91 r13725"
   sodipodi:docname="logo.svg">
  <defs
     id="defs4" />
  <sodipodi:namedview
     id="base"
     pagecolor="#ffffff"
     bordercolor="#666666"
     borderopacity="1.0"
     inkscape:pageopacity="0.0"
     inkscape:pageshadow="2"
     inkscape:zoom="5.6568542"
     inkscape:cx="61.115043"
     inkscape:cy="23.868144"
     inkscape:document-units="px"
     inkscape:current-layer="layer1"
     showgrid="false"
     units="cm"
     inkscape:snap-page="true"
     inkscape:object-nodes="true"
     inkscape:snap-object-midpoints="false"
     inkscape:snap-smooth-nodes="false"
     inkscape:snap-intersection-paths="false"
     inkscape:object-paths="false"
     inkscape:snap-bbox="true"
     inkscape:bbox-nodes="true"
     inkscape:window-width="1920"
     inkscape:window-height="1021"
     inkscape:window-x="0"
     inkscape:window-y="0"
     inkscape:window-maximized="1" />
  <metadata
     id="metadata7">
    <rdf:RDF>
      <cc:Work
         rdf:about="">
        <dc:format>image/svg+xml</dc:format>
        <dc:type
           rdf:resource="http://purl.org/dc/dcmitype/StillImage" />
        <dc:title></dc:title>
      </cc:Work>
    </rdf:RDF>
  </metadata>
  <g
     inkscape:label="Layer 1"
     inkscape:groupmode="layer"
     id="layer1"
     transform="translate(0,-981.49606)">
    <circle
       style="fill:#ff9c00;fill-opacity:1;stroke:none;stroke-width:5;stroke-linecap:round;stroke-linejoin:round;stroke-miterlimit:4;stroke-dasharray:none;stroke-opacity:1"
       id="path4161"
       cx="35.433071"
       cy="1016.9291"
       r="35.433071"
       mask="none" />
    <g
       mask="none"
       style="font-style:normal;font-weight:normal;font-size:40px;line-height:125%;font-family:sans-serif;text-align:center;letter-spacing:0px;word-spacing:0px;text-anchor:middle;fill:#ffffff;fill-opacity:1;stroke:none;stroke-width:1px;stroke-linecap:butt;stroke-linejoin:miter;stroke-opacity:1"
       id="text4163">
      <path
         d="m 21.606958,1001.2041 0,22.9075 c 0,2.3375 -1.2325,3.6125 -3.4425,3.6125 -2.4225,0 -3.4425,-1.19 -3.4425,-4.0375 l 0,-2.975 -6.3750003,0 0,3.06 c 0,3.23 0.765,5.2275 2.5925003,6.9275 1.785,1.615 4.165,2.465 7.0975,2.465 6.3325,0 9.945,-3.2725 9.945,-9.0525 l 0,-22.9075 -6.375,0 z"
         style="font-style:normal;font-variant:normal;font-weight:bold;font-stretch:normal;font-size:42.5px;font-family:'Nimbus Sans L';-inkscape-font-specification:'Nimbus Sans L';text-align:center;text-anchor:middle;fill:#ffffff"
         id="path4212" />
      <path
         d="m 47.559184,1000.6941 c -4.335,0 -7.905,1.445 -10.54,4.2925 -2.7625,2.975 -4.335,7.31 -4.335,11.9425 0,4.6325 1.5725,9.01 4.335,11.9425 2.6775,2.89 6.1625,4.2925 10.5825,4.2925 4.42,0 7.905,-1.4025 10.5825,-4.2925 2.6775,-2.8475 4.335,-7.3525 4.335,-11.73 0,-4.845 -1.5725,-9.18 -4.335,-12.155 -2.72,-2.9325 -6.1625,-4.2925 -10.625,-4.2925 z m 0.0425,5.44 c 5.2275,0 8.5425,4.25 8.5425,10.965 0,6.3325 -3.4425,10.625 -8.5425,10.625 -5.1425,0 -8.5425,-4.2925 -8.5425,-10.795 0,-6.5025 3.4,-10.795 8.5425,-10.795 z"
         style="font-style:normal;font-variant:normal;font-weight:bold;font-stretch:normal;font-size:42.5px;font-family:'Nimbus Sans L';-inkscape-font-specification:'Nimbus Sans L';text-align:center;text-anchor:middle;fill:#ffffff"
         id="path4214" />
    </g>
  </g>
</svg>
